<?xml version="1.0" standalone="no"?>
<!DOCTYPE svg PUBLIC "-//W3C//DTD SVG 20010904//EN"
 "http://www.w3.org/TR/2001/REC-SVG-20010904/DTD/svg10.dtd">
<svg version="1.0" xmlns="http://www.w3.org/2000/svg"
 width="225.000000pt" height="225.000000pt" viewBox="0 0 225.000000 225.000000"
 preserveAspectRatio="xMidYMid meet">

<g transform="translate(0.000000,225.000000) scale(0.100000,-0.100000)"
fill="#3964fe" stroke="none">
<path d="M1529 1886 c-26 -60 -34 -151 -19 -217 18 -79 56 -142 121 -204 l58
-54 -14 -47 c-22 -74 -31 -79 -95 -47 -37 18 -102 72 -195 163 -77 74 -164
151 -192 170 -94 64 -109 126 -44 191 21 21 36 41 33 44 -3 3 -34 5 -69 5 -44
0 -92 -10 -160 -32 -95 -31 -104 -32 -278 -33 -194 -1 -218 -6 -345 -70 -99
-50 -221 -186 -271 -302 -34 -80 -50 -171 -50 -285 0 -179 54 -351 155 -493
64 -88 200 -212 292 -265 83 -48 221 -99 266 -100 15 0 30 -4 33 -10 4 -6 57
-10 125 -10 68 0 121 4 125 10 3 6 19 10 35 10 59 0 189 50 271 105 l82 55 56
-17 c68 -20 221 -22 273 -4 47 16 60 47 29 73 -13 9 -60 32 -107 49 -46 18
-84 37 -84 42 0 5 28 43 63 83 34 41 79 100 100 132 73 111 134 295 143 432 8
117 7 115 64 128 138 32 239 118 278 236 23 71 29 160 11 172 -6 3 -27 -10
-47 -29 -47 -45 -98 -67 -159 -67 -48 0 -143 -36 -157 -59 -13 -20 -34 -12
-44 17 -15 43 -58 88 -107 112 -69 33 -92 57 -110 110 -21 62 -40 64 -66 6z
m-1152 -541 c171 -36 319 -111 451 -230 52 -47 138 -156 261 -334 72 -104 169
-211 230 -256 65 -48 56 -58 -46 -53 -109 5 -149 22 -271 115 -126 94 -195
135 -234 136 -44 3 -47 -20 -13 -87 31 -61 27 -92 -12 -107 -59 -22 -139 1
-239 68 -173 118 -299 314 -345 538 -22 104 -25 190 -7 201 39 24 136 28 225
9z m953 -89 c75 -49 179 -203 165 -245 -8 -26 -58 -45 -104 -38 -77 10 -129
76 -115 147 9 42 -11 68 -62 81 -57 15 -73 40 -43 70 29 29 103 22 159 -15z
m-106 -89 c28 -21 12 -59 -22 -55 -30 3 -41 30 -22 53 15 18 21 19 44 2z"/>
</g>
</svg>
